<svg xmlns="http://www.w3.org/2000/svg" xml:space="preserve" id="Layer_1" x="0" y="0" style="enable-background:new 0 0 2000 2000" version="1.1" viewBox="0 0 2000 2000"><style>.st2{fill:#f08818}</style><path d="M310 1488.6c-13.6-1.3-25.6-7.4-37.5-13.2-84.9-40.9-137.3-109-153.2-200.5-24.9-143.7 18.4-267 125.4-366.5a206.8 206.8 0 0 1 106.5-53c7.6-1.3 7.9-6.7 9.5-11.8a1007.9 1007.9 0 0 1 126.5-266c54.6-81.3 118.4-154.3 199-211.3 49.7-35.2 102.3-65.1 160.7-83.7 1.8-.6 3.5-1.5 5.3-2.3-.4-4-3.6-5.6-5.8-7.8-17.9-18.1-36.3-35.8-53.9-54.2-28.7-29.8-37.3-65.1-22.9-103.7 14.5-39.1 44.4-60.6 86-63.8 28.7-2.2 54 7.7 74.6 28.1 21.4 21.1 42.7 42.3 63.7 63.8 4.8 4.9 7.3 4.9 12.1 0a3982 3982 0 0 1 61.6-61.7c29.8-29.3 65.1-38.5 104.3-24.3 38.8 14 60.4 43.5 64.3 84.6a93 93 0 0 1-27.5 75.8c-18 18.5-36.4 36.6-54.7 54.8l-7.8 8.1 20.5 7.3c96.5 36.3 178.7 93.9 248.9 168.7 104.7 111.3 177.2 241.5 222.9 386.9 2.6 8.2 6.1 11.7 14.8 13.6 59 13 105 46.9 142.3 93 64 79.3 96.2 170.4 91.5 272.2-5.2 113.8-55 201.8-159.9 253.8a107.6 107.6 0 0 1-37.5 13.2c-1.3-4.2 1.5-7.5 2.8-11.1 5.4-15 11.6-29.8 16.6-45 43.9-132.7 53.6-268.7 39-407-.6-5.4-2.8-9.7-6.8-13.6-10.8-10.4-21.3-21.2-32-31.8-26.9-26.6-61.8-26.6-88.6.1-37.9 37.8-76 75.5-113.4 113.8-7.3 7.5-10.8 6.4-17.4-.4-37.1-37.7-74.7-75-112.1-112.4-28.2-28.2-62.5-28.3-90.7-.2-38.1 38.1-76.3 76.1-114.2 114.5-5.6 5.7-8.6 5.2-13.9-.1a24933 24933 0 0 0-114.9-115.1c-26.9-26.9-61.4-26.9-88.4 0-38.4 38.3-76.8 76.6-114.9 115.1-5.3 5.3-8.3 5.8-13.9.2-38.3-38.8-77-77.3-115.6-115.8-26.3-26.2-61.6-26.1-87.9.1-37.9 37.9-75.9 75.6-113.5 113.8-6.6 6.7-10.1 7.8-17.4.4-37.9-38.8-76.4-77-114.8-115.2a58.8 58.8 0 0 0-85.8-.2c-11.2 11-22 22.3-33.4 33.1a21.2 21.2 0 0 0-6.9 14.6c-2 28.3-4.8 56.6-5.8 84.9-1.7 50.9.7 101.8 7 152.4a890 890 0 0 0 41 177.9c5.3 15.7 13.4 30.4 16.2 46.9zm355.9-797.8a107.8 107.8 0 1 0 1.6-215.6 107.8 107.8 0 0 0-1.6 215.6zm666.3 0a107.8 107.8 0 1 0 1.6-215.6 107.8 107.8 0 0 0-1.6 215.6zM998.8 824.3c18.1 0 29.4-4.2 40.2-15 26.6-26.5 53.2-52.9 79.6-79.6a53.5 53.5 0 0 0 16.2-41.6 54.1 54.1 0 0 0-35.4-49.6c-22.7-9.2-43.5-3.6-61.1 13.2a999 999 0 0 0-32.5 32.6c-4.3 4.5-7.1 5.1-11.7.2a988 988 0 0 0-33.9-34 53.8 53.8 0 0 0-42.6-16.1 54 54 0 0 0-48.9 36.4c-8.8 22.9-2.8 43.6 14.3 60.8 25 25.3 50.3 50.3 75.4 75.5 11.5 11.6 24.9 18.7 40.4 17.2z" style="fill:#f0d040"/><path d="M310 1488.6c-2.8-16.5-10.9-31.2-16.2-46.8a896.9 896.9 0 0 1-41-177.9 947 947 0 0 1-7-152.4c1-28.3 3.8-56.6 5.8-84.9.4-5.7 2.5-10.4 6.9-14.6 11.3-10.8 22.2-22.2 33.4-33.1a58.8 58.8 0 0 1 85.8.2c38.4 38.2 76.9 76.4 114.8 115.2 7.3 7.5 10.8 6.3 17.4-.4 37.6-38.2 75.6-75.9 113.5-113.8 26.3-26.3 61.6-26.4 87.9-.1 38.6 38.5 77.3 77 115.6 115.8 5.6 5.7 8.6 5.2 13.9-.2a24933 24933 0 0 1 114.9-115.1c26.9-26.9 61.4-26.9 88.4 0 38.4 38.3 76.8 76.6 114.9 115.1 5.3 5.3 8.3 5.8 13.9.1 37.9-38.4 76.1-76.4 114.2-114.5 28.2-28.1 62.5-28 90.7.2 37.4 37.4 75 74.7 112.1 112.4 6.6 6.7 10.1 7.8 17.4.4 37.4-38.3 75.5-76 113.4-113.8 26.8-26.8 61.8-26.8 88.6-.1 10.7 10.6 21.1 21.4 32 31.8 4 3.9 6.2 8.2 6.8 13.6 14.6 138.3 4.9 274.3-39 407-5 15.2-11.2 29.9-16.6 45-1.3 3.6-4 6.9-2.8 11.1h.1c-1.6-.8-1.8.4-2 1.5-6.2 13.3-12.2 26.6-18.6 39.8a851 851 0 0 1-72.4 119.2c-1.3 1.8-3.3 3-5 4.5-2-1.4-1.3-2.8-.9-4.9a278 278 0 0 0-4.6-136.1 229.3 229.3 0 0 0-118.2-144.3 226.1 226.1 0 0 0-127.3-25.2 233 233 0 0 0-85.6 22.9 241.2 241.2 0 0 0-106.6 105.8c-32.4 61.5-39 127.6-30.6 195.1a338.9 338.9 0 0 0 40.6 123.3 251.6 251.6 0 0 0 77.5 87.2c11.5 7.9 24.8 12.5 36.2 20.5a702.4 702.4 0 0 1-205 49.3 851.7 851.7 0 0 1-116.3 1.7 533 533 0 0 1-71.2-7.9c-39-6.9-77.7-15.7-115.1-28.9-13.2-4.7-26.4-9.7-39.5-14.5.5-.4 1-1 1.5-1.2 32.8-14.2 61-34.5 83.8-62.3a297.8 297.8 0 0 0 46.3-78 356.7 356.7 0 0 0 25.9-171.3 309.3 309.3 0 0 0-29.7-107.9 235.8 235.8 0 0 0-100.4-105.8 230.2 230.2 0 0 0-134.6-27.8 234 234 0 0 0-207.5 176.1c-9 32.9-10.3 66.5-6.8 100.4 1.2 11.9 5.3 23.5 4.1 35.6a669.3 669.3 0 0 1-74-118.9c-7.5-15.3-14.7-30.7-22-46.1 0-1.5-.1-2.6-1.8-2z" style="fill:#f8f8f8"/><path d="M1272.3 1897.9c-11.4-8-24.7-12.6-36.2-20.5a251.6 251.6 0 0 1-77.5-87.2 337 337 0 0 1-40.6-123.3c-8.4-67.6-1.8-133.6 30.6-195.1a241.2 241.2 0 0 1 106.6-105.8 237 237 0 0 1 85.6-22.9c45.3-4.1 87.8 4.6 127.3 25.2 59.5 31 99.1 79.2 118.2 144.3a278 278 0 0 1 4.6 136.1c-.5 2.1-1.2 3.6.9 4.9-5.9 17.9-10.8 36.1-17.9 53.5-30.2 74.4-77.1 135.2-148.4 174.5-45.5 25-93.7 32.9-144.5 17.4-2.8-.8-5.8-.8-8.7-1.1zm-864.5-242.6c1.2-12.1-2.9-23.7-4.1-35.6-3.4-34-2.1-67.5 6.8-100.4A233.6 233.6 0 0 1 618 1343.2c48-4.6 92.8 5.1 134.6 27.8A235.8 235.8 0 0 1 853 1476.8a309.3 309.3 0 0 1 29.7 107.9 355.7 355.7 0 0 1-25.9 171.3 297.8 297.8 0 0 1-46.3 78 219.2 219.2 0 0 1-83.8 62.3c-.6.2-1 .8-1.5 1.2-21.1 6-42.4 10.3-64.6 9.1-51.8-2.8-95.5-24.6-134.1-57.6a356.1 356.1 0 0 1-113.2-179.2c-1.4-5-3.7-9.7-5.5-14.5z" class="st2"/><path d="M310 1488.5c1.7-.5 1.9.5 1.8 1.8-.9-.3-2.1-.3-1.8-1.8zm1377.8 1.5c.2-1.1.4-2.2 2-1.5.1 1.6-1 1.6-2 1.5z" style="fill:#0d2ebd"/><path d="M665.9 690.8a107.7 107.7 0 0 1-107-108.3 107.7 107.7 0 1 1 215.6 1.5c-.3 59.3-48.8 107-108.6 106.8zm666.3 0a107.7 107.7 0 1 1 2.1-215.6 107.8 107.8 0 0 1-2.1 215.6z"/><path d="M998.8 824.3c-15.6 1.6-28.9-5.6-40.5-17.2-25.1-25.2-50.4-50.2-75.4-75.5-17.1-17.3-23-37.9-14.3-60.8a54.2 54.2 0 0 1 48.9-36.4 53.8 53.8 0 0 1 42.6 16.1 988.2 988.2 0 0 1 33.9 34c4.6 4.9 7.4 4.3 11.7-.2a999 999 0 0 1 32.5-32.6c17.6-16.9 38.4-22.4 61.1-13.2 21.6 8.8 34 26 35.4 49.6 1 15.9-4.9 30.2-16.2 41.6-26.4 26.7-53 53.2-79.6 79.6-10.7 10.8-21.9 14.9-40.1 15z" class="st2"/></svg>